<svg width="55" height="56" viewBox="0 0 55 56" fill="none" xmlns="http://www.w3.org/2000/svg">
<rect y="0.0493164" width="55" height="55" rx="27.5" fill="#FFECEC"/>
<path fill-rule="evenodd" clip-rule="evenodd" d="M27.5 26.3494C28.4548 26.3494 29.3705 25.9701 30.0456 25.295C30.7207 24.6199 31.1 23.7042 31.1 22.7494C31.1 21.7946 30.7207 20.879 30.0456 20.2038C29.3705 19.5287 28.4548 19.1494 27.5 19.1494C26.5452 19.1494 25.6296 19.5287 24.9544 20.2038C24.2793 20.879 23.9 21.7946 23.9 22.7494C23.9 23.7042 24.2793 24.6199 24.9544 25.295C25.6296 25.9701 26.5452 26.3494 27.5 26.3494ZM22.3987 37.1494C20.5769 37.1494 19.0422 35.618 19.7394 33.9349C20.1616 32.9157 20.7803 31.9897 21.5603 31.2097C22.3403 30.4297 23.2663 29.811 24.2855 29.3888C25.3046 28.9667 26.3969 28.7494 27.5 28.7494C28.6031 28.7494 29.6954 28.9667 30.7145 29.3888C31.7337 29.811 32.6597 30.4297 33.4397 31.2097C34.2197 31.9897 34.8385 32.9157 35.2606 33.9349C35.9578 35.618 34.4232 37.1494 32.6014 37.1494H22.3987Z" fill="#F53838"/>
</svg>
